# xmcd
#
# Track frame offsets:
# 183
# 14330
# 37490
# 53513
# 77435
# 98103
# 107788
# 129990
# 143873
# 156623
# 187130
# 202063
# 215218
# 229798
# 261073
# 283898
#
# Disc length: 3947 seconds
#
#
# Revision: 5
# Processed by: cddbd v1.5.1PL2 Copyright (c) Steve Scherf et al.
# Submitted via: FreeRIP 2.944 
#
DISCID=f60f6910
DTITLE=Various Artist - The Very Best Of Blues - Disc 1 [CD 1/2)
DYEAR=1992
DGENRE=Blues
TTITLE0=Sonny Terry and Brownie McGhee - Hootin' The Blues
TTITLE1=Nine Below Zero - On The Road Again
TTITLE2=Georgie Fame - I Want To Know
TTITLE3=Pete Haycock - The New York Stakes
TTITLE4=Charles Brown - Too Late
TTITLE5=Phil Upchurch - Nice To Have You Around
TTITLE6=Albert Collins/Robert Cray/Johnny Copeland - T-Bone Shuffle
TTITLE7=T-Bone Walker - That Evening Train
TTITLE8=Billie Holiday - Billie's Blues
TTITLE9=Jan Akkerman - Shame On You
TTITLE10=Lightnin´ Hopkins - Big Car Blues
TTITLE11=Elmore James - Standing At The Crossroads
TTITLE12=Sonny Boy Williamson - Sonny Boy's Harmonica Blues
TTITLE13=Junior Wells - I'll Take Care Of You
TTITLE14=Albert Collins - Iceman
TTITLE15=Little Walter - Juke
EXTD=
EXTT0=Sonny Terry - Brownie McGhee
EXTT1=Nine Below Zero
EXTT2=Georgie Fame
EXTT3=Pete Haycock
EXTT4=Charles Brown
EXTT5=Phil Upchurch
EXTT6=Albert Collins - Robert Cray - Johnny \nCopeland
EXTT7=T-Bone Walker
EXTT8=Billie Holiday
EXTT9=Jan Akkerman
EXTT10=Lightnin' Hopkins
EXTT11=Elmore James
EXTT12=Sonny Boy Williamson
EXTT13=Junior Wells
EXTT14=Albert Collins
EXTT15=Little Walter
PLAYORDER=
